<svg width="14" height="15" viewBox="0 0 14 15" fill="none" xmlns="http://www.w3.org/2000/svg">
<path d="M1.27939 6.93512C2.50793 6.76923 4.96574 6.39005 6.84395 5.80111C6.88784 5.78706 6.928 5.76536 6.96199 5.73734C6.99598 5.70932 7.02309 5.67555 7.04167 5.6381C7.27865 5.17117 7.57212 4.89992 7.59193 4.88038C7.65168 4.82824 7.73246 4.79863 7.81694 4.7979C7.90141 4.79716 7.98285 4.82537 8.04378 4.87646C8.1047 4.92756 8.14026 4.99746 8.14281 5.07118C8.14537 5.1449 8.11472 5.21656 8.05744 5.27077C7.98843 5.33871 7.92551 5.4112 7.86926 5.48758C7.8156 5.5583 7.7833 5.63971 7.77535 5.72425C7.71372 6.35226 7.65539 7.93911 8.47857 8.90755C8.50702 8.94029 8.54428 8.9664 8.58704 8.98356C8.62981 9.00072 8.67677 9.00841 8.72375 9.00594C8.77073 9.00347 8.81629 8.99092 8.85639 8.9694C8.89649 8.94788 8.92989 8.91805 8.95363 8.88257C9.12172 8.63568 9.30772 8.39842 9.51049 8.17225C10.0281 7.59324 10.2126 7.00718 10.0607 6.42944C10.0398 6.35727 10.0514 6.28084 10.0931 6.21589C10.1348 6.15095 10.2034 6.10244 10.2849 6.08037C10.3267 6.0701 10.3705 6.06733 10.4136 6.0722C10.4567 6.07708 10.4982 6.08951 10.5356 6.10874C10.5731 6.12797 10.6057 6.15361 10.6315 6.18412C10.6573 6.21464 10.6758 6.24939 10.6858 6.28629C10.8285 6.8067 10.8289 7.61661 10.0215 8.51973C9.73199 8.84063 9.48156 9.18698 9.27424 9.55318C9.17385 9.73432 9.12982 9.93534 9.14658 10.136L9.38796 13.1733C9.39796 13.2986 9.36705 13.4237 9.29882 13.5342C9.04204 13.9506 8.819 14.4505 8.99581 15.139C9.03293 15.2812 9.12432 15.4081 9.25498 15.499C9.38563 15.5898 9.54779 15.6392 9.71482 15.6389H14.8968C14.989 15.6389 15.0801 15.6207 15.1632 15.5856C15.2463 15.5506 15.3192 15.4996 15.3766 15.4366C15.434 15.3735 15.4744 15.2999 15.4947 15.2214C15.515 15.1428 15.5148 15.0612 15.494 14.9827C15.4651 14.881 15.4034 14.7886 15.3162 14.7165C15.229 14.6445 15.12 14.5957 15.002 14.576C14.3586 14.462 13.1037 14.1411 12.3975 13.3068C12.2002 13.0715 12.1062 12.7822 12.1326 12.4915L12.903 3.52444C12.9554 2.91901 12.7311 2.32009 12.2793 1.85857C11.8274 1.39704 11.1846 1.11043 10.4914 1.06138C10.3183 1.0488 10.1471 1.02046 9.98077 0.976834L9.55121 0.865706C9.28565 0.797225 9.01074 0.760278 8.73389 0.75586L0.993624 0.638968C0.930414 0.638162 0.867651 0.648335 0.808986 0.668896C0.75032 0.689456 0.696922 0.719995 0.651898 0.758735C0.606874 0.797475 0.571122 0.843644 0.546722 0.894556C0.522321 0.945468 0.509759 1.00011 0.509766 1.0553V2.56656C0.509766 2.63196 0.539525 2.69469 0.592498 2.74093C0.64547 2.78718 0.717316 2.81316 0.79223 2.81316H1.76949C2.75811 2.81316 3.72143 3.05847 4.57432 3.49497C4.89468 3.65851 5.23519 3.78991 5.58936 3.88664C5.66655 3.90696 5.73255 3.95124 5.77493 4.01112C5.8173 4.071 5.8331 4.14234 5.81937 4.2117C5.81076 4.25066 5.79282 4.28759 5.76671 4.32007C5.74061 4.35256 5.70693 4.37985 5.66789 4.40017C5.62885 4.4205 5.58534 4.43338 5.54019 4.43799C5.49505 4.4426 5.4493 4.43882 5.40594 4.42691C4.99574 4.31536 4.6018 4.16254 4.23206 3.97151C3.47648 3.58195 2.61508 3.37636 1.73757 3.37616H0.793331C0.756237 3.37616 0.719507 3.38254 0.685236 3.39493C0.650966 3.40732 0.619827 3.42549 0.593598 3.44839C0.567369 3.47128 0.546563 3.49847 0.532367 3.52839C0.518172 3.55831 0.510866 3.59037 0.510866 3.62275V6.35995C0.510845 6.4439 0.531634 6.52687 0.571805 6.60314C0.611976 6.67942 0.670579 6.74721 0.743589 6.80185C0.8166 6.85649 0.902289 6.8967 0.994776 6.9197C1.08726 6.9427 1.18436 6.94796 1.27939 6.93512Z" fill="#DB3C38"/>
</svg>
