<svg width="15" height="15" viewBox="0 0 15 15" fill="none" xmlns="http://www.w3.org/2000/svg">
<path fill-rule="evenodd" clip-rule="evenodd" d="M0.629475 0.623797L0.46635 0.631938L0.4656 7.55112C0.465225 11.3567 0.469238 14.477 0.474563 14.4853C0.479888 14.4935 0.597525 14.4891 0.735975 14.4756C0.874425 14.462 1.092 14.458 1.21943 14.4666C3.04118 14.5905 4.55513 14.1158 5.41361 13.1516C5.65793 12.8772 5.65631 12.8821 5.54835 12.7468C5.2545 12.3786 5.1429 11.7594 5.14309 10.4977C5.1432 9.66465 5.19848 9.3666 5.52263 8.45145C5.70409 7.93916 6.06975 7.09177 6.10939 7.09177C6.14948 7.09177 6.77737 7.39459 7.13865 7.58817C8.03636 8.06918 8.15824 8.10537 8.99992 8.1412C10.2187 8.1931 10.8919 8.3865 12.2794 9.08329C12.6941 9.29157 12.9056 9.21807 14.1341 8.43847C14.5365 8.18306 14.5607 7.90541 14.2231 7.41719C13.681 6.63339 12.7697 5.98151 11.554 5.50802C11.0422 5.30871 10.899 5.20111 10.6651 4.84058C10.0623 3.91094 9.24667 3.36504 8.139 3.1497C7.68218 3.06089 7.5213 3.05052 6.46335 3.04163C5.313 3.03198 5.1912 3.02219 4.2804 2.86645C3.61013 2.75186 3.24458 2.65936 3.07999 2.56266C2.85784 2.43218 2.73169 1.86103 2.73165 0.985623V0.606544L1.76213 0.6111C1.22888 0.61361 0.719213 0.619313 0.629475 0.623797ZM7.79479 3.73114C8.43454 3.87869 9.05149 4.26093 9.58342 4.83928C10.0581 5.35534 10.1191 5.50322 9.90184 5.61068C9.77816 5.67183 9.72367 5.63776 9.47752 5.3453C8.55619 4.2506 7.4595 3.82547 6.52477 4.20071C6.21454 4.32524 6.00622 4.23037 6.09566 4.00534C6.19822 3.74735 7.17885 3.5891 7.79479 3.73114ZM4.38795 6.19251C4.62086 6.30772 4.50911 6.54035 3.97785 7.04618C3.27446 7.71593 2.33749 8.04562 1.359 7.96764L1.14626 7.95071V7.73702V7.52332L1.59139 7.52325C2.6187 7.52314 3.36555 7.16433 4.00268 6.36489C4.08098 6.26661 4.15905 6.18085 4.17615 6.17426C4.23533 6.15152 4.3197 6.15876 4.38795 6.19251ZM2.31386 6.42403C2.5449 6.63572 2.26868 6.98083 1.86578 6.98388C1.42751 6.98722 1.35776 6.59971 1.76145 6.40445C1.94516 6.31561 2.2056 6.32482 2.31386 6.42403Z" fill="#DB3C38"/>
</svg>
