<svg width="15" height="14" viewBox="0 0 15 14" fill="none" xmlns="http://www.w3.org/2000/svg">
<path fill-rule="evenodd" clip-rule="evenodd" d="M6.14758 0.45351L6.16755 1.03232L5.9026 1.31653C5.56635 1.67717 4.74079 2.12209 3.67361 2.51771C2.05677 3.11712 1.59873 3.7141 1.50872 5.33947C1.46893 6.05772 1.45123 6.13514 1.21083 6.64436C0.871296 7.36346 0.762156 7.80735 0.695715 8.73933C0.66521 9.16705 0.596622 9.68594 0.543349 9.89242C0.36311 10.591 0.245624 13.0215 0.361206 13.6603L0.400016 13.8747H1.16594H1.93191L1.99138 13.6174C2.08723 13.2026 2.1228 12.8706 2.18418 11.816C2.26504 10.4264 2.74114 8.85853 3.30872 8.11238L3.43755 7.94303L3.78915 8.35347C3.98256 8.5792 4.20015 8.85615 4.27267 8.96891L4.40453 9.1739L4.70728 8.89189C5.06569 8.55802 5.4771 7.91737 5.63323 7.44988C5.82421 6.87824 6.02438 6.73441 6.24841 7.00801C6.51733 7.33646 5.73471 8.82884 4.9361 9.51055C4.70951 9.70395 4.60685 9.84029 4.60669 9.94799C4.60657 10.0341 4.53701 10.2868 4.45218 10.5096C4.19148 11.1942 3.7994 13.1432 3.79932 13.7547C3.79932 13.8659 3.91608 13.8747 5.38254 13.8747H6.9658V11.4835C6.9658 8.9196 6.97249 8.86506 7.28702 8.86506C7.57466 8.86506 7.58665 8.97043 7.58665 11.4954V13.8747H9.20402H10.8214L10.7815 13.4459C10.7137 12.7155 10.4516 11.3676 10.282 10.877C10.1931 10.6197 10.0864 10.2764 10.045 10.1142C9.98579 9.88239 9.89359 9.7532 9.61446 9.51104C8.76042 8.77018 8.04602 7.24592 8.42437 6.97187C8.65849 6.80234 8.73238 6.87748 9.04931 7.60737C9.2829 8.14534 9.42777 8.37505 9.7761 8.7601L10.2112 9.24098L10.3114 9.07324C10.771 8.30417 11.1554 7.94491 11.296 8.15295C11.9609 9.13682 12.3394 10.4098 12.436 11.9876C12.4707 12.5537 12.5323 13.2022 12.5729 13.4287L12.6468 13.8404L13.418 13.8598C13.9933 13.8743 14.2021 13.8568 14.2397 13.7912C14.4108 13.4932 14.2682 10.5068 14.039 9.58703C13.9733 9.32355 13.9191 8.92211 13.9186 8.69486C13.9169 8.04692 13.7601 7.37569 13.449 6.68448C13.1837 6.09502 13.1609 6.0026 13.1401 5.43288C13.0783 3.73828 12.5913 3.10655 10.8654 2.4822C9.87908 2.12541 9.04724 1.66943 8.73311 1.31335L8.48696 1.03433L8.48915 0.454675L8.49137 -0.124938L7.30947 -0.125118L6.1276 -0.125252L6.14758 0.45351ZM6.93473 2.20834C7.07867 2.38414 7.38336 2.38414 7.58665 2.20834C7.77763 2.04324 7.88482 2.03751 8.03192 2.18465C8.34314 2.49599 7.86518 3.03186 7.27625 3.03186C6.86748 3.03186 6.40702 2.70726 6.40702 2.41915C6.40702 2.08654 6.72953 1.95771 6.93473 2.20834ZM7.47314 3.48855C7.57636 3.59181 7.58665 3.73497 7.58665 5.06538V6.52861L7.43145 6.64101C7.28767 6.74516 7.26478 6.74516 7.12101 6.64101L6.9658 6.52861V5.07729C6.9658 3.39362 7.06562 3.08093 7.47314 3.48855ZM9.35595 4.01824C9.42786 4.07641 9.50329 4.27885 9.55267 4.5464C9.69803 5.33405 10.1006 5.85107 10.6459 5.95043C11.0668 6.02718 11.1914 6.26187 10.9608 6.54352C10.5965 6.98853 9.52492 6.34448 9.15877 5.46046C8.759 4.49531 8.87713 3.63126 9.35595 4.01824ZM5.6261 4.48729C5.61443 5.60864 4.76716 6.66904 3.88282 6.66904C3.47591 6.66904 3.37868 6.10751 3.77007 6.01791C3.85446 5.99857 4.0003 5.96494 4.09421 5.94313C4.53077 5.84171 4.89627 5.28726 5.0407 4.50731C5.1387 3.97807 5.13631 3.98134 5.40385 4.00601L5.63092 4.02692L5.6261 4.48729Z" fill="#DB3C38"/>
</svg>
