<svg width="15" height="15" viewBox="0 0 15 15" fill="none" xmlns="http://www.w3.org/2000/svg">
<path fill-rule="evenodd" clip-rule="evenodd" d="M3.90283 15.4745C3.84131 15.4745 3.78859 15.4558 3.73587 15.4276C3.56891 15.3338 3.49861 15.1087 3.58648 14.9304C3.68314 14.6396 3.7095 12.7728 3.66557 11.2062C3.64799 10.8591 3.56012 10.4745 3.4371 10.0618C3.2965 10.7184 3.11196 10.9623 2.98015 11.0749C2.78683 11.2437 0.871191 11.1968 0.502123 11.1968C0.361525 11.1968 0.238502 11.103 0.176991 10.9623C-0.0514803 10.3901 -0.0602677 9.29253 0.159416 7.70716C0.317588 6.55332 0.572421 5.31504 0.748168 4.65838C0.748168 4.649 0.756956 4.63962 0.756956 4.63024C1.10845 3.58896 2.3211 3.03549 3.49861 2.50078C4.5443 2.03174 5.62515 1.53456 5.62515 0.849752C5.62515 0.643373 5.78332 0.474518 5.97664 0.474518C6.81144 0.474518 8.19105 0.474518 9.02585 0.474518C9.21917 0.474518 9.37734 0.643373 9.37734 0.849752C9.37734 1.53456 10.4582 2.03174 11.4951 2.50078C12.6726 3.03549 13.894 3.58896 14.2455 4.63024C14.2455 4.63962 14.2455 4.63962 14.2543 4.649C14.4213 5.31504 14.6761 6.54394 14.8431 7.70716C15.054 9.29253 15.054 10.3807 14.8255 10.9623C14.764 11.103 14.6322 11.1968 14.5004 11.1968C14.1313 11.1968 12.3035 11.2437 12.1102 11.0749C11.9784 10.9623 11.7939 10.7372 11.6621 10.1274C11.539 10.5402 11.4599 10.9154 11.4512 11.2062C11.4072 12.8197 11.4248 14.6584 11.5127 14.9492C11.583 15.1368 11.5127 15.3526 11.3369 15.437C11.2842 15.4651 11.2403 15.4745 11.1875 15.4745C9.11372 15.4745 6.2139 15.4745 3.90283 15.4745ZM7.55836 14.2831C7.65502 14.2831 7.73411 14.1987 7.73411 14.0955V11.0374C7.73411 10.9342 7.65502 10.8498 7.55836 10.8498C7.4617 10.8498 7.38261 10.9342 7.38261 11.0374V14.0955C7.38261 14.1987 7.4617 14.2831 7.55836 14.2831ZM10.6339 5.15557C10.6867 5.15557 10.7394 5.13681 10.7745 5.0899C10.836 5.00547 10.8185 4.8929 10.7482 4.82724L8.95555 3.29816C8.88525 3.23249 8.77102 3.24187 8.7095 3.3263C8.64799 3.40135 8.65678 3.5233 8.73587 3.58896L10.5197 5.11804C10.5548 5.14619 10.59 5.15557 10.6339 5.15557ZM4.36855 5.15557C4.4037 5.15557 4.44764 5.14619 4.474 5.11804L6.26662 3.58896C6.33692 3.5233 6.3545 3.40135 6.29298 3.3263C6.23147 3.24187 6.11724 3.22311 6.03815 3.28878L4.25432 4.82724C4.17523 4.8929 4.16645 5.00547 4.22796 5.0899C4.26311 5.13681 4.31583 5.15557 4.36855 5.15557ZM8.6392 13.5702C9.22796 13.5702 9.7552 13.0074 9.7552 12.3788C9.7552 12.2756 9.67611 12.1912 9.57945 12.1912C9.48279 12.1912 9.4037 12.2756 9.4037 12.3788C9.4037 12.8104 9.04342 13.195 8.6392 13.195C8.54254 13.195 8.46346 13.2794 8.46346 13.3826C8.46346 13.4858 8.54254 13.5702 8.6392 13.5702ZM6.44237 13.5702C6.53903 13.5702 6.61812 13.4858 6.61812 13.3826C6.61812 13.2794 6.53903 13.195 6.44237 13.195C6.03815 13.195 5.71302 12.801 5.71302 12.3788C5.71302 12.2756 5.63393 12.1912 5.53727 12.1912C5.44061 12.1912 5.36153 12.2756 5.36153 12.3788C5.36153 13.0074 5.84483 13.5702 6.44237 13.5702ZM8.93797 10.8216C8.96434 10.8216 8.99949 10.8122 9.02585 10.7935C9.10493 10.7372 9.1313 10.6246 9.08736 10.5402L8.41073 9.28315C8.3668 9.19872 8.25256 9.1612 8.17348 9.21748C8.09439 9.26439 8.05924 9.38634 8.11196 9.47077L8.7798 10.7278C8.81495 10.7841 8.86768 10.8216 8.93797 10.8216ZM6.15239 10.8216C6.2139 10.8216 6.27541 10.7841 6.30177 10.7278L6.9784 9.47077C7.03112 9.38634 6.99597 9.26439 6.91688 9.21748C6.82901 9.1612 6.72356 9.19872 6.67084 9.28315L6.003 10.5402C5.95028 10.6246 5.98543 10.7372 6.06451 10.7935C6.09087 10.8122 6.12602 10.8216 6.15239 10.8216ZM9.57945 7.87602C9.93095 7.87602 10.3176 7.81035 10.6339 7.6415C10.8712 7.51017 11.126 7.29441 11.126 6.97546C11.126 6.87227 11.0469 6.78784 10.9591 6.78784C10.8624 6.78784 10.7833 6.87227 10.7833 6.96607L10.7745 7.0036L10.7657 7.04112C10.713 7.18183 10.5109 7.29441 10.3791 7.35069C10.1243 7.46326 9.84307 7.50078 9.57945 7.50078C9.30704 7.50078 9.02585 7.46326 8.7798 7.35069C8.64799 7.29441 8.44588 7.18183 8.39316 7.04112L8.37558 7.0036V6.96607C8.37558 6.86289 8.2965 6.78784 8.19984 6.78784C8.10318 6.78784 8.02409 6.87227 8.02409 6.97546C8.02409 7.28502 8.28771 7.51017 8.52497 7.6415C8.84131 7.81035 9.22796 7.87602 9.57945 7.87602ZM5.51091 7.87602C5.8624 7.87602 6.24905 7.81035 6.5566 7.6415C6.80265 7.51017 7.05748 7.29441 7.05748 6.97546C7.05748 6.87227 6.9784 6.78784 6.88174 6.78784C6.79386 6.78784 6.71478 6.87227 6.70599 6.96607V7.0036L6.6972 7.04112C6.63569 7.18183 6.44237 7.29441 6.31056 7.35069C6.05573 7.46326 5.77453 7.50078 5.51091 7.50078C5.24729 7.50078 4.98367 7.46326 4.74641 7.36007C4.60581 7.29441 4.4037 7.19122 4.35098 7.03174L4.34219 7.0036L4.33341 6.96607C4.33341 6.86289 4.25432 6.78784 4.15766 6.78784C4.06979 6.78784 3.9907 6.87227 3.9907 6.97546C3.9907 7.04112 3.99949 7.09741 4.01706 7.16307C4.2016 7.69778 5.04518 7.87602 5.51091 7.87602Z" fill="#DB3C38"/>
</svg>
