<svg width="15" height="13" viewBox="0 0 15 13" fill="none" xmlns="http://www.w3.org/2000/svg">
<path d="M13.8281 7.92969C13.4109 7.18672 13.8281 6.20703 13.0335 5.54844L11.2992 3.50937C9.99134 1.96953 9.62571 1.53828 9.48275 1.41875V1.40234C8.90618 1.07188 6.90462 0.03594 5.41868 0.514065C5.12527 0.607522 4.85569 0.763674 4.62865 0.971694C4.40161 1.17971 4.22253 1.43462 4.10384 1.71875C3.99675 1.96133 3.969 2.23149 4.02455 2.49076C4.08012 2.75002 4.21613 2.98512 4.41322 3.1625C4.68626 3.40714 5.02573 3.56529 5.38866 3.61704C5.75161 3.66877 6.12174 3.61172 6.45228 3.45312C7.20228 2.96797 8.30384 3.35937 8.65071 4.15625C8.74446 4.29922 9.15931 5.52734 8.98353 6.34765C8.9539 6.53016 8.86686 6.69847 8.73509 6.82812C8.315 6.71886 7.87414 6.71743 7.45336 6.82395C7.03259 6.93047 6.64552 7.14153 6.32806 7.4375C5.75501 7.14343 5.12276 6.98316 4.47884 6.96875C3.90877 6.94665 3.34018 7.04103 2.80784 7.24615C2.27549 7.45128 1.79058 7.76281 1.38274 8.16172C0.963243 8.58373 0.727783 9.15458 0.727783 9.74961C0.727783 10.3446 0.963243 10.9155 1.38274 11.3375C1.90304 11.9175 2.5894 12.3232 3.34845 12.4993C4.10747 12.6755 4.90236 12.6135 5.62493 12.3219C6.24809 12.5146 6.89686 12.6118 7.54915 12.6102C9.74056 12.6102 12.0281 11.5484 13.9499 9.58437C14.4726 9.13906 14.3226 8.375 13.8281 7.92969Z" fill="#DB3C38"/>
</svg>
